<svg width="448" height="448" viewBox="0 0 448 448" fill="none" xmlns="http://www.w3.org/2000/svg">
<g filter="url(#filter0_f_53_1491)">
<mask id="path-1-inside-1_53_1491" fill="white">
<path d="M224 392.875C130.733 392.875 55.125 317.267 55.125 224C55.125 130.733 130.733 55.125 224 55.125C317.267 55.125 392.875 130.733 392.875 224C392.875 317.267 317.267 392.875 224 392.875ZM224 417C330.591 417 417 330.591 417 224C417 117.409 330.591 31 224 31C117.409 31 31 117.409 31 224C31 330.591 117.409 417 224 417Z"/>
</mask>
<path d="M224 392.875C130.733 392.875 55.125 317.267 55.125 224C55.125 130.733 130.733 55.125 224 55.125C317.267 55.125 392.875 130.733 392.875 224C392.875 317.267 317.267 392.875 224 392.875ZM224 417C330.591 417 417 330.591 417 224C417 117.409 330.591 31 224 31C117.409 31 31 117.409 31 224C31 330.591 117.409 417 224 417Z" fill="#0A021B"/>
<path d="M391.875 224C391.875 316.715 316.715 391.875 224 391.875V393.875C317.819 393.875 393.875 317.819 393.875 224H391.875ZM224 56.125C316.715 56.125 391.875 131.285 391.875 224H393.875C393.875 130.181 317.819 54.125 224 54.125V56.125ZM56.125 224C56.125 131.285 131.285 56.125 224 56.125V54.125C130.181 54.125 54.125 130.181 54.125 224H56.125ZM224 391.875C131.285 391.875 56.125 316.715 56.125 224H54.125C54.125 317.819 130.181 393.875 224 393.875V391.875ZM416 224C416 330.039 330.039 416 224 416V418C331.143 418 418 331.143 418 224H416ZM224 32C330.039 32 416 117.961 416 224H418C418 116.857 331.143 30 224 30V32ZM32 224C32 117.961 117.961 32 224 32V30C116.857 30 30 116.857 30 224H32ZM224 416C117.961 416 32 330.039 32 224H30C30 331.143 116.857 418 224 418V416Z" fill="black" mask="url(#path-1-inside-1_53_1491)"/>
</g>
<defs>
<filter id="filter0_f_53_1491" x="0" y="0" width="448" height="448" filterUnits="userSpaceOnUse" color-interpolation-filters="sRGB">
<feFlood flood-opacity="0" result="BackgroundImageFix"/>
<feBlend mode="normal" in="SourceGraphic" in2="BackgroundImageFix" result="shape"/>
<feGaussianBlur stdDeviation="15.5" result="effect1_foregroundBlur_53_1491"/>
</filter>
</defs>
</svg>
