<svg width="40" height="32" viewBox="0 0 40 32" fill="none" xmlns="http://www.w3.org/2000/svg">
<path d="M33.8838 3.54634C31.2945 2.33489 28.526 1.45445 25.6315 0.953125C25.276 1.59581 24.8607 2.46023 24.5744 3.14788C21.4975 2.68515 18.4489 2.68515 15.4286 3.14788C15.1423 2.46023 14.7176 1.59581 14.3589 0.953125C11.4613 1.45445 8.68959 2.33812 6.10032 3.55276C0.877738 11.4448 -0.538019 19.1408 0.169861 26.7275C3.63375 29.3142 6.99068 30.8856 10.291 31.9138C11.1058 30.7924 11.8326 29.6002 12.4586 28.3438C11.2663 27.8907 10.1242 27.3316 9.04512 26.6825C9.3314 26.4704 9.61143 26.2487 9.88197 26.0205C16.4637 29.0989 23.6148 29.0989 30.1179 26.0205C30.3916 26.2487 30.6716 26.4704 30.9547 26.6825C29.8725 27.3348 28.7273 27.8939 27.5349 28.347C28.161 29.6002 28.8846 30.7956 29.7026 31.917C33.0061 30.8888 36.3661 29.3174 39.83 26.7275C40.6606 17.9325 38.4111 10.3072 33.8838 3.54634ZM13.3553 22.0617C11.3795 22.0617 9.75925 20.2172 9.75925 17.9711C9.75925 15.7249 11.3449 13.8773 13.3553 13.8773C15.3657 13.8773 16.9859 15.7217 16.9513 17.9711C16.9545 20.2172 15.3657 22.0617 13.3553 22.0617ZM26.6446 22.0617C24.6688 22.0617 23.0485 20.2172 23.0485 17.9711C23.0485 15.7249 24.6342 13.8773 26.6446 13.8773C28.6549 13.8773 30.2752 15.7217 30.2406 17.9711C30.2406 20.2172 28.6549 22.0617 26.6446 22.0617Z" fill="#0A021C"/>
</svg>
