<svg width="520" height="308" viewBox="0 0 520 308" fill="none" xmlns="http://www.w3.org/2000/svg">
<path d="M306.928 184.021H196.361C195.862 184.022 195.373 183.881 194.951 183.615C194.53 183.348 194.193 182.967 193.98 182.516C193.767 182.066 193.688 181.563 193.75 181.069C193.813 180.574 194.015 180.108 194.334 179.724L206.129 168.156C206.974 167.133 208.036 166.309 209.238 165.744C210.439 165.179 211.751 164.887 213.08 164.888H323.647C324.145 164.888 324.633 165.03 325.054 165.297C325.474 165.564 325.81 165.946 326.022 166.396C326.233 166.847 326.312 167.348 326.249 167.842C326.186 168.336 325.984 168.802 325.666 169.185L313.879 180.753C313.033 181.776 311.972 182.599 310.77 183.164C309.568 183.729 308.256 184.022 306.928 184.021Z" fill="#F4B0C2"/>
<path d="M270.65 36.0237C270.506 36.0119 270.362 36.0119 270.219 36.0237C269.946 36.0344 269.677 36.0882 269.421 36.1831L250.388 43.709C250.168 43.8024 249.928 43.8392 249.69 43.8161C249.452 43.7929 249.224 43.7106 249.026 43.5765C248.829 43.4425 248.668 43.261 248.559 43.0488C248.449 42.8365 248.395 42.6003 248.401 42.3616V38.7502C248.399 38.1673 248.166 37.6088 247.753 37.1966C247.341 36.7844 246.782 36.552 246.198 36.5498C246.018 36.551 245.839 36.5723 245.663 36.6136C233.23 39.6833 222.181 46.8206 214.278 56.8889C206.375 66.9572 202.071 79.3777 202.051 92.1725C202.069 105.402 206.665 118.218 215.06 128.449C223.455 138.681 235.132 145.698 248.113 148.313C248.257 148.326 248.401 148.326 248.544 148.313C248.817 148.302 249.086 148.248 249.342 148.154L268.599 140.293C268.793 140.211 269.004 140.18 269.213 140.201C269.423 140.222 269.623 140.296 269.797 140.415C269.97 140.534 270.11 140.695 270.205 140.883C270.3 141.071 270.346 141.279 270.339 141.489V145.587C270.339 146.173 270.571 146.734 270.986 147.148C271.401 147.563 271.963 147.795 272.549 147.795C272.726 147.794 272.903 147.773 273.076 147.731C285.727 144.622 296.939 137.298 304.865 126.968C312.79 116.638 316.954 103.918 316.672 90.9063C316.389 77.8943 311.676 65.3669 303.31 55.3899C294.944 45.4129 283.424 38.582 270.65 36.0237ZM259.382 136.052C248.712 136.077 238.399 132.22 230.37 125.2C222.342 118.18 217.147 108.48 215.759 97.9116C214.37 87.3437 216.882 76.6323 222.825 67.7804C228.768 58.9285 237.735 52.5422 248.049 49.8157L248.361 49.736C254.389 48.1888 260.679 47.9402 266.811 49.0068C272.943 50.0734 278.778 52.4308 283.929 55.9225C289.079 59.4142 293.427 63.9603 296.685 69.2592C299.942 74.558 302.034 80.4884 302.821 86.6566C303.609 92.8249 303.074 99.0899 301.253 105.036C299.431 110.982 296.364 116.473 292.256 121.144C288.148 125.816 283.092 129.561 277.424 132.131C271.756 134.701 265.606 136.038 259.382 136.052Z" fill="#F4B0C2"/>
<g clip-path="url(#clip0_8_12353)">
<path d="M147.292 211.714C147.292 212.845 146.956 213.949 146.327 214.889C145.699 215.829 144.805 216.561 143.759 216.994C142.714 217.426 141.563 217.54 140.453 217.319C139.343 217.099 138.324 216.554 137.524 215.755C136.723 214.956 136.178 213.938 135.958 212.829C135.737 211.721 135.85 210.572 136.283 209.528C136.716 208.483 137.45 207.591 138.391 206.963C139.332 206.335 140.438 206 141.57 206C143.084 206.009 144.535 206.614 145.606 207.684C146.677 208.754 147.283 210.202 147.292 211.714ZM144.469 220.155C144.576 220.151 144.682 220.168 144.782 220.207C144.882 220.245 144.973 220.303 145.05 220.377C145.127 220.451 145.188 220.54 145.23 220.638C145.271 220.736 145.293 220.842 145.293 220.949V263.203C145.293 263.413 145.209 263.615 145.06 263.764C144.911 263.913 144.709 263.997 144.498 263.997H138.671C138.46 263.997 138.258 263.913 138.109 263.764C137.96 263.615 137.876 263.413 137.876 263.203V220.949C137.876 220.738 137.96 220.536 138.109 220.387C138.258 220.238 138.46 220.155 138.671 220.155H144.469Z" fill="#F4B0C2"/>
<path d="M191.467 220.219C191.611 220.225 191.751 220.268 191.875 220.342C191.998 220.417 192.101 220.521 192.174 220.645C195.063 221.258 197.657 222.835 199.529 225.116C201.402 227.396 202.442 230.245 202.478 233.195V263.279C202.477 263.49 202.392 263.693 202.242 263.842C202.092 263.992 201.89 264.077 201.678 264.078H195.88C195.668 264.077 195.466 263.992 195.317 263.842C195.168 263.692 195.085 263.49 195.085 263.279V233.195C195.037 231.705 194.411 230.293 193.34 229.256C192.268 228.22 190.834 227.64 189.342 227.64C187.85 227.64 186.417 228.22 185.345 229.256C184.273 230.293 183.647 231.705 183.6 233.195V260.389V263.308C183.6 263.519 183.516 263.721 183.367 263.871C183.218 264.021 183.016 264.106 182.805 264.107H177.007C176.795 264.106 176.593 264.021 176.444 263.871C176.295 263.721 176.212 263.519 176.212 263.308V260.389V237.041H176.96C176.749 237.04 176.546 236.955 176.398 236.805C176.249 236.655 176.165 236.453 176.165 236.242V233.323C176.181 231.901 175.659 230.524 174.703 229.469C173.748 228.414 172.429 227.758 171.01 227.632H164.639V263.273C164.639 263.378 164.618 263.481 164.578 263.578C164.538 263.675 164.479 263.762 164.404 263.836C164.33 263.91 164.241 263.968 164.144 264.008C164.047 264.047 163.943 264.067 163.838 264.067H158.046C157.941 264.067 157.837 264.047 157.74 264.008C157.643 263.968 157.555 263.91 157.48 263.836C157.406 263.762 157.347 263.675 157.307 263.578C157.266 263.481 157.245 263.378 157.245 263.273V221.03C157.245 220.926 157.266 220.822 157.307 220.725C157.347 220.628 157.406 220.541 157.48 220.467C157.555 220.393 157.643 220.335 157.74 220.295C157.837 220.256 157.941 220.236 158.046 220.236H163.838C163.943 220.236 164.047 220.256 164.144 220.295C164.241 220.335 164.33 220.393 164.404 220.467C164.479 220.541 164.538 220.628 164.578 220.725C164.618 220.822 164.639 220.926 164.639 221.03V224.906L170.583 220.4C170.726 220.301 170.895 220.245 171.068 220.236H171.115C174.465 220.459 177.595 221.977 179.841 224.468C181.037 223.141 182.496 222.077 184.127 221.344C185.757 220.611 187.522 220.226 189.31 220.213L191.467 220.219Z" fill="#F4B0C2"/>
<path d="M237.956 221.421C239.453 222.122 241.183 223.044 242.866 223.996C245.42 225.437 247.501 226.716 248.81 227.533V221.019C248.809 220.914 248.829 220.81 248.869 220.713C248.909 220.616 248.967 220.528 249.041 220.454C249.115 220.379 249.203 220.32 249.299 220.28C249.396 220.24 249.5 220.219 249.605 220.219H255.403C255.615 220.219 255.819 220.303 255.969 220.453C256.119 220.603 256.204 220.807 256.204 221.019V263.255C256.202 263.467 256.117 263.669 255.968 263.819C255.818 263.969 255.615 264.053 255.403 264.055H249.605C249.394 264.052 249.193 263.966 249.044 263.817C248.896 263.668 248.812 263.466 248.81 263.255V256.741C247.501 257.553 245.42 258.831 242.866 260.278C241.183 261.23 239.453 262.152 237.956 262.847C236.46 263.541 235.285 264.055 234.257 264.055C228.436 264.055 222.853 261.746 218.738 257.635C214.622 253.525 212.309 247.95 212.309 242.137C212.309 236.324 214.622 230.749 218.738 226.639C222.853 222.528 228.436 220.219 234.257 220.219C235.303 220.219 236.472 220.727 237.956 221.421ZM219.703 242.131C219.694 244.042 220.064 245.937 220.792 247.704C221.52 249.472 222.592 251.078 223.945 252.429C225.298 253.78 226.906 254.851 228.676 255.578C230.446 256.305 232.343 256.675 234.257 256.665C235.63 256.665 238.792 256.473 241.896 256.082C244.238 255.851 246.553 255.399 248.81 254.733V229.512C246.553 228.848 244.238 228.403 241.896 228.181C238.792 227.813 235.63 227.597 234.257 227.597C232.343 227.588 230.446 227.957 228.676 228.684C226.906 229.412 225.298 230.482 223.945 231.833C222.592 233.185 221.52 234.791 220.792 236.558C220.064 238.326 219.694 240.22 219.703 242.131Z" fill="#F4B0C2"/>
<path d="M106.647 221.421C108.149 222.122 109.873 223.044 111.557 223.996C114.117 225.437 116.192 226.716 117.501 227.533V221.019C117.501 220.807 117.585 220.603 117.735 220.453C117.885 220.303 118.089 220.219 118.302 220.219H124.094C124.199 220.219 124.303 220.24 124.4 220.28C124.497 220.32 124.586 220.379 124.66 220.453C124.734 220.527 124.793 220.616 124.834 220.713C124.874 220.81 124.894 220.914 124.894 221.019V263.255C124.893 263.467 124.808 263.669 124.658 263.819C124.508 263.969 124.306 264.053 124.094 264.055H118.302C118.09 264.053 117.887 263.969 117.737 263.819C117.587 263.669 117.502 263.467 117.501 263.255V256.741C116.192 257.553 114.117 258.831 111.557 260.278C109.873 261.23 108.149 262.152 106.647 262.847C105.145 263.541 103.976 264.055 102.947 264.055C97.1265 264.055 91.5441 261.746 87.4282 257.635C83.3123 253.525 81 247.95 81 242.137C81 236.324 83.3123 230.749 87.4282 226.639C91.5441 222.528 97.1265 220.219 102.947 220.219C103.976 220.219 105.145 220.727 106.647 221.421ZM88.3937 242.131C88.3844 244.042 88.7545 245.937 89.4826 247.704C90.2107 249.472 91.2823 251.078 92.6356 252.429C93.9889 253.78 95.5969 254.851 97.3669 255.578C99.1368 256.305 101.033 256.675 102.947 256.665C104.321 256.665 107.483 256.473 110.586 256.082C112.929 255.852 115.244 255.401 117.501 254.733V229.512C115.244 228.847 112.929 228.402 110.586 228.181C107.483 227.813 104.321 227.597 102.947 227.597C101.034 227.588 99.1373 227.959 97.3678 228.686C95.5982 229.413 93.9905 230.484 92.6373 231.835C91.2842 233.186 90.2125 234.792 89.4842 236.559C88.7558 238.326 88.3852 240.22 88.3937 242.131Z" fill="#F4B0C2"/>
<path d="M309.573 219.915C309.784 219.919 309.985 220.004 310.133 220.153C310.282 220.303 310.366 220.505 310.368 220.715V261.545C310.368 274.065 300.513 284 288.42 284H285.527C285.422 284.001 285.318 283.981 285.221 283.941C285.124 283.902 285.036 283.843 284.961 283.77C284.887 283.696 284.828 283.608 284.788 283.511C284.747 283.415 284.726 283.311 284.726 283.206V277.416C284.726 277.311 284.747 277.207 284.788 277.111C284.828 277.014 284.887 276.926 284.961 276.852C285.036 276.779 285.124 276.72 285.221 276.681C285.318 276.641 285.422 276.621 285.527 276.622H288.42C296.323 276.622 302.647 270.598 302.962 262.205C302.959 262.168 302.959 262.131 302.962 262.094V256.607C301.647 257.43 299.537 258.737 296.936 260.214C295.23 261.183 293.476 262.129 291.951 262.835C290.425 263.541 289.221 264.061 288.175 264.061C285.263 264.108 282.371 263.576 279.667 262.496C276.963 261.416 274.501 259.81 272.425 257.77C270.349 255.73 268.7 253.298 267.575 250.616C266.449 247.933 265.87 245.054 265.87 242.146C265.87 239.237 266.449 236.358 267.575 233.676C268.7 230.993 270.349 228.561 272.425 226.521C274.501 224.482 276.963 222.875 279.667 221.795C282.371 220.715 285.263 220.183 288.175 220.231C288.231 220.225 288.288 220.225 288.344 220.231C289.356 220.283 290.501 220.762 291.951 221.439C293.4 222.116 295.23 223.091 296.936 224.06C299.537 225.537 301.647 226.844 302.962 227.667V220.715C302.962 220.61 302.983 220.506 303.023 220.409C303.063 220.312 303.122 220.224 303.197 220.15C303.271 220.075 303.359 220.017 303.457 219.976C303.554 219.936 303.658 219.915 303.763 219.915H309.573ZM273.633 242.143C273.624 244.054 273.994 245.948 274.722 247.716C275.45 249.483 276.522 251.089 277.875 252.441C279.228 253.792 280.836 254.862 282.606 255.59C284.376 256.317 286.273 256.686 288.187 256.677C290.786 256.614 293.381 256.42 295.96 256.093C298.341 255.849 300.69 255.366 302.974 254.652V229.652C300.69 228.938 298.341 228.455 295.96 228.21C293.381 227.884 290.786 227.689 288.187 227.626C286.274 227.617 284.379 227.986 282.61 228.712C280.842 229.438 279.234 230.507 277.881 231.856C276.528 233.206 275.456 234.81 274.727 236.575C273.998 238.341 273.626 240.233 273.633 242.143Z" fill="#F4B0C2"/>
<path d="M331.619 211.714C331.619 212.845 331.284 213.949 330.655 214.889C330.026 215.829 329.133 216.561 328.087 216.994C327.041 217.426 325.891 217.54 324.781 217.319C323.671 217.099 322.651 216.554 321.851 215.755C321.051 214.956 320.506 213.938 320.285 212.829C320.064 211.721 320.178 210.572 320.611 209.528C321.044 208.483 321.777 207.591 322.718 206.963C323.659 206.335 324.766 206 325.897 206C327.412 206.009 328.862 206.614 329.933 207.684C331.004 208.754 331.61 210.202 331.619 211.714ZM328.82 220.155C329.03 220.155 329.233 220.238 329.382 220.387C329.531 220.536 329.615 220.738 329.615 220.949V263.203C329.611 263.411 329.526 263.61 329.378 263.757C329.229 263.903 329.028 263.985 328.82 263.985H322.975C322.77 263.979 322.574 263.894 322.43 263.749C322.285 263.603 322.202 263.408 322.197 263.203V220.949C322.199 220.742 322.281 220.543 322.426 220.395C322.571 220.247 322.768 220.161 322.975 220.155H328.82Z" fill="#F4B0C2"/>
<path d="M348.178 220.219C348.39 220.219 348.594 220.303 348.744 220.453C348.894 220.603 348.978 220.807 348.978 221.019V227.626C350.147 226.873 352.064 225.688 354.548 224.258C356.302 223.26 358.055 222.268 359.651 221.521C361.247 220.774 362.456 220.219 363.532 220.219H364.245C364.347 220.223 364.447 220.243 364.543 220.277C370.174 220.544 375.488 222.961 379.384 227.03C383.281 231.099 385.463 236.507 385.479 242.137V263.255C385.478 263.467 385.393 263.669 385.243 263.819C385.093 263.969 384.89 264.053 384.678 264.055H378.886C378.674 264.055 378.47 263.971 378.32 263.821C378.17 263.671 378.085 263.467 378.085 263.255V242.137C378.095 240.225 377.725 238.331 376.997 236.563C376.269 234.795 375.197 233.189 373.844 231.837C372.491 230.485 370.883 229.414 369.113 228.687C367.343 227.959 365.446 227.588 363.532 227.597C360.936 227.661 358.346 227.856 355.77 228.181C354.204 228.373 352.661 228.607 351.369 228.881C350.555 229.046 349.755 229.276 348.978 229.57V263.255C348.977 263.466 348.892 263.668 348.742 263.817C348.592 263.966 348.389 264.049 348.178 264.049H342.385C342.281 264.05 342.177 264.03 342.079 263.99C341.982 263.951 341.894 263.892 341.82 263.819C341.745 263.745 341.686 263.657 341.646 263.56C341.605 263.464 341.585 263.36 341.585 263.255V221.019C341.585 220.807 341.669 220.603 341.819 220.453C341.969 220.303 342.173 220.219 342.385 220.219H348.178Z" fill="#F4B0C2"/>
<path d="M417.544 220.219C423.278 220.347 428.734 222.712 432.744 226.807C436.754 230.903 439 236.403 439 242.131V245.05C438.999 245.165 438.973 245.279 438.924 245.383C438.875 245.488 438.804 245.581 438.715 245.656C438.627 245.73 438.524 245.785 438.413 245.817C438.302 245.848 438.185 245.855 438.071 245.838H403.031L403.616 247.735C404.722 250.387 406.592 252.651 408.988 254.241C411.384 255.831 414.199 256.675 417.076 256.665H419.999C420.211 256.665 420.415 256.75 420.565 256.9C420.715 257.049 420.799 257.253 420.799 257.465V263.249C420.798 263.461 420.713 263.664 420.563 263.813C420.413 263.963 420.21 264.048 419.999 264.049H417.076C412.736 264.049 408.493 262.763 404.884 260.355C401.275 257.946 398.463 254.523 396.802 250.518C395.141 246.514 394.706 242.107 395.553 237.856C396.399 233.604 398.489 229.699 401.558 226.634C404.987 223.252 409.445 221.106 414.23 220.534C415.327 220.365 416.434 220.26 417.544 220.219ZM417.076 227.597C416.813 227.597 416.55 227.597 416.287 227.597C412.688 227.779 409.284 229.289 406.737 231.835C404.872 233.702 402.412 238.74 402.756 244.092L430.987 238.442C430.44 236.28 429.398 234.275 427.941 232.585C426.484 230.895 424.653 229.567 422.594 228.706C420.847 227.984 418.978 227.608 417.088 227.597H417.076Z" fill="#F4B0C2"/>
</g>
<defs>
<clipPath id="clip0_8_12353">
<rect width="358" height="78" fill="white" transform="translate(81 206)"/>
</clipPath>
</defs>
</svg>
