<svg width="22" height="24" viewBox="0 0 22 24" fill="none" xmlns="http://www.w3.org/2000/svg">
<path d="M18.3373 24.0001H0.426271C0.34544 24.0002 0.266232 23.9774 0.197923 23.9342C0.129615 23.8909 0.0750359 23.8292 0.0405793 23.756C0.00612265 23.6829 -0.0067846 23.6015 0.00336952 23.5213C0.0135236 23.4411 0.0463186 23.3655 0.0979129 23.3033L2.00859 21.4275C2.14555 21.2615 2.31753 21.128 2.5122 21.0363C2.70688 20.9447 2.91941 20.8973 3.13458 20.8975H21.0456C21.1263 20.8975 21.2053 20.9206 21.2735 20.9639C21.3416 21.0072 21.396 21.069 21.4303 21.1421C21.4646 21.2151 21.4774 21.2964 21.4672 21.3765C21.457 21.4566 21.4242 21.5321 21.3727 21.5943L19.4633 23.47C19.3263 23.6359 19.1543 23.7694 18.9596 23.8611C18.7649 23.9527 18.5524 24.0002 18.3373 24.0001Z" fill="#F4B0C2"/>
<path d="M12.4605 0.00143466C12.4372 -0.000478219 12.4139 -0.000478219 12.3907 0.00143466C12.3465 0.00317479 12.3029 0.0119012 12.2614 0.0272896L9.17819 1.24764C9.14257 1.26279 9.10372 1.26876 9.0652 1.26501C9.02668 1.26126 8.98971 1.2479 8.95768 1.22616C8.92566 1.20443 8.8996 1.175 8.88188 1.14059C8.86417 1.10617 8.85537 1.06786 8.8563 1.02917V0.443554C8.85596 0.34903 8.81826 0.258475 8.75142 0.191636C8.68458 0.124797 8.59403 0.0870966 8.4995 0.086756C8.47033 0.0869351 8.44128 0.0904044 8.41289 0.097098C6.39873 0.594863 4.60901 1.7522 3.32873 3.38483C2.04844 5.01746 1.3512 7.0315 1.34802 9.10626C1.35102 11.2514 2.09553 13.3296 3.45541 14.9887C4.81528 16.6478 6.7069 17.7858 8.80976 18.2098C8.83299 18.2118 8.85634 18.2118 8.87957 18.2098C8.92374 18.2079 8.96735 18.1992 9.00884 18.1839L12.1282 16.9093C12.1596 16.896 12.1939 16.8909 12.2278 16.8943C12.2617 16.8978 12.2942 16.9097 12.3223 16.929C12.3503 16.9484 12.3731 16.9744 12.3885 17.0049C12.4038 17.0353 12.4112 17.0691 12.4101 17.1032V17.7677C12.4101 17.8626 12.4478 17.9537 12.5149 18.0209C12.5821 18.088 12.6732 18.1258 12.7682 18.1258C12.7969 18.1256 12.8255 18.1221 12.8535 18.1154C14.9028 17.6112 16.7192 16.4236 18.003 14.7486C19.2868 13.0735 19.9615 11.0109 19.9157 8.90094C19.8699 6.79097 19.1064 4.75959 17.7512 3.14177C16.3959 1.52395 14.5298 0.416288 12.4605 0.00143466ZM10.6351 16.2215C8.90678 16.2257 7.23612 15.6001 5.93553 14.4618C4.63495 13.3236 3.79351 11.7505 3.56855 10.0369C3.34359 8.32324 3.75052 6.58633 4.71325 5.15095C5.67598 3.71556 7.12858 2.68 8.79942 2.23789L8.84984 2.22496C9.82644 1.97406 10.8452 1.93376 11.8386 2.10671C12.832 2.27967 13.7772 2.66193 14.6115 3.22813C15.4459 3.79432 16.1503 4.5315 16.6779 5.39074C17.2056 6.24998 17.5444 7.21161 17.672 8.21183C17.7996 9.21204 17.7129 10.2279 17.4179 11.1921C17.1228 12.1563 16.626 13.0467 15.9605 13.8042C15.295 14.5617 14.476 15.169 13.5579 15.5858C12.6397 16.0025 11.6434 16.2193 10.6351 16.2215Z" fill="#F4B0C2"/>
</svg>
