<svg width="111" height="24" viewBox="0 0 111 24" fill="none" xmlns="http://www.w3.org/2000/svg">
<path d="M20.3703 1.75829C20.3703 2.10604 20.2672 2.44599 20.074 2.73514C19.8807 3.02429 19.6061 3.24965 19.2849 3.38273C18.9636 3.51581 18.61 3.55063 18.269 3.48279C17.9279 3.41495 17.6146 3.24749 17.3687 3.00159C17.1228 2.75568 16.9553 2.44239 16.8875 2.10131C16.8196 1.76024 16.8545 1.40671 16.9875 1.08542C17.1206 0.764135 17.346 0.489528 17.6351 0.296325C17.9243 0.103122 18.2642 0 18.612 0C19.0774 0.00282673 19.523 0.188982 19.8522 0.518114C20.1813 0.847246 20.3674 1.29283 20.3703 1.75829ZM19.5028 4.35531C19.5356 4.3541 19.5684 4.35953 19.599 4.37126C19.6297 4.38299 19.6577 4.40079 19.6814 4.4236C19.705 4.4464 19.7238 4.47374 19.7366 4.50397C19.7495 4.53421 19.7561 4.56672 19.756 4.59957V17.6008C19.756 17.6656 19.7303 17.7277 19.6845 17.7736C19.6387 17.8194 19.5766 17.8451 19.5118 17.8451H17.7212C17.6564 17.8451 17.5943 17.8194 17.5485 17.7736C17.5026 17.7277 17.4769 17.6656 17.4769 17.6008V4.59957C17.4769 4.53479 17.5026 4.47266 17.5485 4.42685C17.5943 4.38104 17.6564 4.35531 17.7212 4.35531H19.5028Z" fill="#F4B0C2"/>
<path d="M33.9445 4.37509C33.9888 4.37709 34.0319 4.39013 34.0698 4.41303C34.1078 4.43593 34.1394 4.46795 34.1618 4.5062C35.0495 4.69489 35.8466 5.17998 36.422 5.88174C36.9975 6.58349 37.317 7.46015 37.3282 8.3676V17.6242C37.3277 17.6893 37.3016 17.7516 37.2556 17.7977C37.2095 17.8437 37.1472 17.8698 37.0821 17.8703H35.3005C35.2355 17.8698 35.1734 17.8437 35.1277 17.7976C35.0819 17.7515 35.0562 17.6892 35.0562 17.6242V8.3676C35.0416 7.90935 34.8493 7.47476 34.52 7.15578C34.1906 6.83679 33.7501 6.65843 33.2917 6.65843C32.8332 6.65843 32.3927 6.83679 32.0633 7.15578C31.734 7.47476 31.5417 7.90935 31.5271 8.3676V16.7352V17.6332C31.5271 17.6981 31.5014 17.7604 31.4556 17.8065C31.4099 17.8526 31.3478 17.8788 31.2828 17.8792H29.5012C29.4362 17.8788 29.3741 17.8526 29.3284 17.8065C29.2826 17.7604 29.2569 17.6981 29.2569 17.6332V16.7352V9.55117H29.4868C29.4219 9.5507 29.3597 9.52456 29.314 9.47847C29.2682 9.43238 29.2426 9.37006 29.2426 9.30512V8.40712C29.2475 7.96942 29.0871 7.54599 28.7934 7.22138C28.4998 6.89677 28.0945 6.69487 27.6585 6.65601H25.7008V17.6224C25.7008 17.6546 25.6945 17.6865 25.6821 17.7163C25.6697 17.7461 25.6515 17.7731 25.6287 17.7958C25.6058 17.8185 25.5787 17.8364 25.5488 17.8486C25.519 17.8608 25.487 17.8669 25.4548 17.8667H23.6749C23.6427 17.8669 23.6108 17.8608 23.5809 17.8486C23.5511 17.8364 23.5239 17.8185 23.5011 17.7958C23.4782 17.7731 23.46 17.7461 23.4477 17.7163C23.4353 17.6865 23.4289 17.6546 23.4289 17.6224V4.62473C23.4289 4.5925 23.4353 4.56059 23.4477 4.53084C23.46 4.50109 23.4782 4.47408 23.5011 4.45138C23.5239 4.42867 23.5511 4.41072 23.5809 4.39855C23.6108 4.38638 23.6427 4.38024 23.6749 4.38047H25.4548C25.487 4.38024 25.519 4.38638 25.5488 4.39855C25.5787 4.41072 25.6058 4.42867 25.6287 4.45138C25.6515 4.47408 25.6697 4.50109 25.6821 4.53084C25.6945 4.56059 25.7008 4.5925 25.7008 4.62473V5.81728L27.5274 4.43076C27.5714 4.40037 27.623 4.38295 27.6764 4.38047H27.6908C28.72 4.4489 29.682 4.91604 30.3722 5.68258C30.7396 5.27407 31.188 4.94664 31.689 4.7212C32.19 4.49577 32.7324 4.37727 33.2818 4.37329L33.9445 4.37509Z" fill="#F4B0C2"/>
<path d="M48.2299 4.7451C48.6896 4.96062 49.2213 5.24439 49.7385 5.53714C50.5234 5.98075 51.1627 6.37407 51.565 6.62551V4.62117C51.5648 4.58895 51.5709 4.55699 51.5831 4.52715C51.5953 4.49731 51.6132 4.47017 51.6359 4.4473C51.6587 4.42442 51.6857 4.40627 51.7154 4.39389C51.7452 4.3815 51.7771 4.37512 51.8093 4.37512H53.5909C53.6562 4.37512 53.7188 4.40105 53.7649 4.44719C53.8111 4.49333 53.837 4.55592 53.837 4.62117V17.6171C53.8365 17.6822 53.8104 17.7445 53.7644 17.7905C53.7184 17.8366 53.656 17.8626 53.5909 17.8631H51.8093C51.7445 17.8622 51.6826 17.8359 51.637 17.7899C51.5913 17.7439 51.5655 17.6819 51.565 17.6171V15.6127C51.1627 15.8624 50.5234 16.2557 49.7385 16.7011C49.2213 16.9938 48.6896 17.2776 48.2299 17.4913C47.7701 17.7051 47.4091 17.8631 47.093 17.8631C45.3044 17.8631 43.589 17.1526 42.3243 15.8878C41.0595 14.6231 40.349 12.9077 40.349 11.1191C40.349 9.3305 41.0595 7.61514 42.3243 6.35039C43.589 5.08565 45.3044 4.37512 47.093 4.37512C47.4145 4.37512 47.7737 4.53137 48.2299 4.7451ZM42.6209 11.1173C42.6181 11.7054 42.7318 12.2882 42.9555 12.8321C43.1793 13.3759 43.5086 13.8701 43.9244 14.2859C44.3402 14.7017 44.8344 15.031 45.3782 15.2548C45.9221 15.4785 46.5049 15.5922 47.093 15.5894C47.5151 15.5894 48.4867 15.5301 49.4404 15.4098C50.1601 15.3388 50.8715 15.1999 51.565 14.9949V7.23436C50.8715 7.0303 50.16 6.89318 49.4404 6.82487C48.4867 6.71172 47.5151 6.64527 47.093 6.64527C46.5049 6.64242 45.9221 6.75614 45.3782 6.97987C44.8344 7.2036 44.3402 7.5329 43.9244 7.94874C43.5086 8.36458 43.1793 8.85871 42.9555 9.40257C42.7318 9.94643 42.6181 10.5292 42.6209 11.1173Z" fill="#F4B0C2"/>
<path d="M7.88087 4.7451C8.34244 4.96062 8.87226 5.24439 9.38951 5.53714C10.1762 5.98075 10.8137 6.37407 11.216 6.62551V4.62117C11.216 4.55592 11.242 4.49333 11.2881 4.44719C11.3343 4.40105 11.3968 4.37512 11.4621 4.37512H13.2419C13.2742 4.37512 13.3062 4.38149 13.3361 4.39385C13.3659 4.40622 13.3931 4.42434 13.4159 4.44719C13.4388 4.47004 13.4569 4.49716 13.4693 4.52701C13.4816 4.55687 13.488 4.58886 13.488 4.62117V17.6171C13.4875 17.6822 13.4614 17.7445 13.4154 17.7905C13.3694 17.8366 13.307 17.8626 13.2419 17.8631H11.4621C11.397 17.8626 11.3347 17.8366 11.2886 17.7905C11.2426 17.7445 11.2165 17.6822 11.216 17.6171V15.6127C10.8137 15.8624 10.1762 16.2557 9.38951 16.7011C8.87226 16.9938 8.34244 17.2776 7.88087 17.4913C7.41929 17.7051 7.06009 17.8631 6.74399 17.8631C4.95538 17.8631 3.24001 17.1526 1.97527 15.8878C0.710526 14.6231 0 12.9077 0 11.1191C0 9.3305 0.710526 7.61514 1.97527 6.35039C3.24001 5.08565 4.95538 4.37512 6.74399 4.37512C7.06009 4.37512 7.41929 4.53137 7.88087 4.7451ZM2.27194 11.1173C2.26909 11.7054 2.38281 12.2882 2.60654 12.8321C2.83028 13.3759 3.15958 13.8701 3.57541 14.2859C3.99125 14.7017 4.48538 15.031 5.02924 15.2548C5.57311 15.4785 6.15592 15.5922 6.74399 15.5894C7.16606 15.5894 8.13769 15.5301 9.09137 15.4098C9.81115 15.3391 10.5226 15.2002 11.216 14.9949V7.23436C10.5226 7.02997 9.8111 6.89284 9.09137 6.82487C8.13769 6.71172 7.16606 6.64527 6.74399 6.64527C6.15598 6.64266 5.57328 6.75654 5.02953 6.98036C4.48577 7.20417 3.99174 7.53348 3.57595 7.94927C3.16016 8.36506 2.83085 8.8591 2.60703 9.40285C2.38322 9.94661 2.26933 10.5293 2.27194 11.1173Z" fill="#F4B0C2"/>
<path d="M70.2363 4.28162C70.3011 4.28255 70.363 4.30883 70.4087 4.35483C70.4543 4.40082 70.4801 4.46286 70.4806 4.52767V17.0907C70.4806 20.9431 67.4525 23.9999 63.7366 23.9999H62.8476C62.8154 24.0002 62.7834 23.994 62.7536 23.9819C62.7237 23.9697 62.6966 23.9517 62.6737 23.929C62.6508 23.9063 62.6327 23.8793 62.6203 23.8496C62.6079 23.8198 62.6015 23.7879 62.6015 23.7557V21.974C62.6015 21.9418 62.6079 21.9099 62.6203 21.8802C62.6327 21.8504 62.6508 21.8234 62.6737 21.8007C62.6966 21.778 62.7237 21.76 62.7536 21.7479C62.7834 21.7357 62.8154 21.7296 62.8476 21.7298H63.7366C66.1648 21.7298 68.1081 19.8763 68.2051 17.2937C68.2042 17.2823 68.2042 17.2709 68.2051 17.2595V15.5713C67.801 15.8245 67.1526 16.2268 66.3534 16.6812C65.829 16.9794 65.2902 17.2703 64.8214 17.4876C64.3526 17.7049 63.9827 17.8648 63.6612 17.8648C62.7664 17.8794 61.8777 17.7158 61.0468 17.3835C60.2159 17.0511 59.4594 16.5568 58.8215 15.9292C58.1835 15.3016 57.6769 14.5533 57.3311 13.7279C56.9852 12.9025 56.8071 12.0166 56.8071 11.1217C56.8071 10.2268 56.9852 9.34086 57.3311 8.51548C57.6769 7.69011 58.1835 6.94182 58.8215 6.31422C59.4594 5.68662 60.2159 5.19226 61.0468 4.85994C61.8777 4.52762 62.7664 4.364 63.6612 4.3786C63.6785 4.37684 63.6959 4.37684 63.7133 4.3786C64.024 4.39476 64.376 4.54204 64.8214 4.75037C65.2668 4.95871 65.829 5.25864 66.3534 5.55678C67.1526 6.01117 67.801 6.41347 68.2051 6.66671V4.52767C68.2051 4.49536 68.2114 4.46336 68.2238 4.43351C68.2362 4.40366 68.2543 4.37653 68.2771 4.35368C68.3 4.33084 68.3271 4.31271 68.357 4.30035C68.3868 4.28798 68.4188 4.28162 68.4511 4.28162H70.2363ZM59.1927 11.1208C59.1899 11.7089 59.3036 12.2917 59.5273 12.8356C59.751 13.3794 60.0804 13.8735 60.4962 14.2894C60.912 14.7052 61.4062 15.0345 61.95 15.2582C62.4939 15.482 63.0767 15.5957 63.6648 15.5928C64.4635 15.5736 65.2608 15.5136 66.0535 15.4132C66.7849 15.3379 67.5069 15.1893 68.2087 14.9696V7.27735C67.5069 7.05766 66.7849 6.90904 66.0535 6.83374C65.2608 6.73335 64.4635 6.67341 63.6648 6.65414C63.0771 6.65129 62.4948 6.76484 61.9513 6.98823C61.4078 7.21163 60.9139 7.54044 60.4981 7.95571C60.0823 8.37097 59.7529 8.86447 59.5289 9.4077C59.3048 9.95094 59.1906 10.5332 59.1927 11.1208Z" fill="#F4B0C2"/>
<path d="M77.0108 1.75829C77.0108 2.10604 76.9077 2.44599 76.7145 2.73514C76.5213 3.02429 76.2467 3.24965 75.9254 3.38273C75.6041 3.51581 75.2506 3.55063 74.9095 3.48279C74.5685 3.41495 74.2552 3.24749 74.0093 3.00159C73.7634 2.75568 73.5959 2.44239 73.528 2.10131C73.4602 1.76024 73.495 1.40671 73.6281 1.08542C73.7612 0.764135 73.9866 0.489528 74.2757 0.296325C74.5648 0.103122 74.9048 0 75.2526 0C75.718 0.00282673 76.1636 0.188982 76.4927 0.518114C76.8219 0.847246 77.008 1.29283 77.0108 1.75829ZM76.1506 4.35531C76.2153 4.35531 76.2775 4.38104 76.3233 4.42685C76.3691 4.47266 76.3948 4.53479 76.3948 4.59957V17.6008C76.3939 17.665 76.3677 17.7262 76.322 17.7712C76.2763 17.8163 76.2147 17.8415 76.1506 17.8415H74.3546C74.2915 17.8397 74.2315 17.8137 74.187 17.7689C74.1426 17.7241 74.117 17.6639 74.1157 17.6008V4.59957C74.1161 4.53585 74.1413 4.47478 74.1858 4.42922C74.2304 4.38367 74.2909 4.35717 74.3546 4.35531H76.1506Z" fill="#F4B0C2"/>
<path d="M82.0989 4.37512C82.1641 4.37512 82.2267 4.40105 82.2729 4.44719C82.319 4.49333 82.3449 4.55592 82.3449 4.62117V6.65425C82.7041 6.42257 83.2932 6.05798 84.0565 5.61796C84.5953 5.31084 85.1341 5.00552 85.6244 4.77563C86.1148 4.54574 86.4865 4.37512 86.817 4.37512H87.0361C87.0674 4.37641 87.0983 4.38246 87.1277 4.39308C88.8581 4.47508 90.4908 5.21893 91.6881 6.4708C92.8855 7.72267 93.556 9.38681 93.561 11.1191V17.6171C93.5605 17.6822 93.5344 17.7445 93.4884 17.7905C93.4424 17.8366 93.38 17.8626 93.3149 17.8631H91.5351C91.4698 17.8631 91.4073 17.8372 91.3611 17.791C91.315 17.7449 91.289 17.6823 91.289 17.6171V11.1191C91.2919 10.531 91.1782 9.94806 90.9545 9.4041C90.7308 8.86013 90.4015 8.36589 89.9857 7.9499C89.5699 7.53392 89.0758 7.20445 88.5319 6.98053C87.988 6.7566 87.4052 6.64265 86.817 6.64527C86.0195 6.66501 85.2234 6.72495 84.4319 6.82487C83.9506 6.88414 83.4764 6.95598 83.0795 7.04039C82.8293 7.09109 82.5837 7.16197 82.3449 7.25232V17.6171C82.3445 17.682 82.3183 17.7441 82.2722 17.7899C82.2261 17.8356 82.1638 17.8613 82.0989 17.8613H80.319C80.2868 17.8616 80.2549 17.8554 80.225 17.8432C80.1952 17.8311 80.168 17.8131 80.1452 17.7904C80.1223 17.7677 80.1041 17.7407 80.0918 17.7109C80.0794 17.6812 80.073 17.6493 80.073 17.6171V4.62117C80.073 4.55592 80.0989 4.49333 80.1451 4.44719C80.1912 4.40105 80.2538 4.37512 80.319 4.37512H82.0989Z" fill="#F4B0C2"/>
<path d="M103.414 4.37512C105.176 4.41455 106.853 5.1422 108.085 6.40231C109.317 7.66242 110.007 9.35485 110.007 11.1173V12.0153C110.007 12.0508 109.999 12.0859 109.984 12.118C109.969 12.1502 109.947 12.1788 109.92 12.2018C109.893 12.2248 109.861 12.2417 109.827 12.2513C109.792 12.261 109.757 12.2632 109.721 12.2578H98.9544L99.134 12.8415C99.474 13.6575 100.049 14.3543 100.785 14.8435C101.521 15.3327 102.386 15.5923 103.27 15.5894H104.168C104.234 15.5894 104.296 15.6153 104.342 15.6614C104.388 15.7076 104.414 15.7702 104.414 15.8354V17.6153C104.414 17.6804 104.388 17.7427 104.342 17.7887C104.296 17.8348 104.233 17.8608 104.168 17.8613H103.27C101.937 17.8612 100.633 17.4656 99.5238 16.7245C98.4149 15.9835 97.5506 14.9303 97.0402 13.698C96.5299 12.4658 96.3963 11.1099 96.6565 9.80182C96.9166 8.4937 97.5588 7.29209 98.5019 6.34893C99.5555 5.30848 100.925 4.64819 102.396 4.47211C102.733 4.41998 103.073 4.3876 103.414 4.37512ZM103.27 6.64527C103.189 6.64527 103.109 6.64527 103.028 6.64527C101.922 6.70124 100.876 7.1659 100.093 7.94917C99.5202 8.52389 98.7641 10.0738 98.87 11.7208L107.545 9.98225C107.377 9.31699 107.056 8.69996 106.609 8.17999C106.161 7.66003 105.599 7.25142 104.966 6.98651C104.429 6.76443 103.855 6.64854 103.274 6.64527H103.27Z" fill="#F4B0C2"/>
</svg>
