<svg width="244" height="272" viewBox="0 0 244 272" fill="none" xmlns="http://www.w3.org/2000/svg">
<path d="M196.354 253.057H21.1693C20.3787 253.059 19.604 252.836 18.9358 252.414C18.2677 251.993 17.7339 251.39 17.3969 250.677C17.0599 249.964 16.9336 249.17 17.0329 248.388C17.1323 247.606 17.453 246.868 17.9577 246.262L36.6457 227.968C37.9852 226.35 39.6674 225.047 41.5714 224.154C43.4755 223.26 45.5543 222.797 47.6587 222.799H222.843C223.633 222.8 224.406 223.025 225.072 223.447C225.738 223.869 226.27 224.472 226.606 225.185C226.941 225.897 227.066 226.69 226.967 227.471C226.867 228.252 226.546 228.989 226.042 229.595L207.367 247.888C206.027 249.506 204.345 250.808 202.441 251.701C200.537 252.595 198.458 253.058 196.354 253.057V253.057Z" fill="#F4B0C2"/>
<path d="M138.874 19.0142C138.646 18.9955 138.418 18.9955 138.191 19.0142C137.759 19.0311 137.332 19.1162 136.926 19.2663L106.77 31.1677C106.422 31.3154 106.042 31.3736 105.665 31.337C105.288 31.3004 104.927 31.1702 104.613 30.9582C104.3 30.7462 104.045 30.4592 103.872 30.1236C103.699 29.788 103.613 29.4144 103.622 29.037V23.3259C103.618 22.4041 103.25 21.5209 102.596 20.8691C101.942 20.2172 101.056 19.8496 100.132 19.8463C99.8467 19.848 99.5625 19.8818 99.2848 19.9471C79.5846 24.8015 62.0797 36.0883 49.5575 52.0103C37.0352 67.9323 30.2156 87.5739 30.1845 107.808V107.808C30.2139 128.728 37.4958 148.996 50.7965 165.176C64.0972 181.356 82.5988 192.453 103.167 196.589C103.394 196.608 103.622 196.608 103.849 196.589C104.281 196.57 104.708 196.485 105.114 196.336L135.624 183.906C135.931 183.776 136.266 183.726 136.598 183.76C136.929 183.793 137.247 183.91 137.522 184.098C137.796 184.287 138.019 184.541 138.169 184.838C138.319 185.135 138.392 185.464 138.38 185.797V192.277C138.38 193.203 138.749 194.091 139.406 194.746C140.063 195.401 140.954 195.769 141.883 195.769C142.164 195.767 142.444 195.734 142.717 195.668C162.762 190.751 180.527 179.17 193.084 162.834C205.641 146.498 212.239 126.383 211.792 105.805C211.344 85.2281 203.877 65.4174 190.621 49.6398C177.365 33.8623 159.113 23.06 138.874 19.0142V19.0142ZM121.02 177.198C104.115 177.239 87.775 171.138 75.0542 160.037C62.3334 148.936 54.1034 133.596 51.9031 116.884C49.7028 100.171 53.683 83.2325 63.0993 69.2341C72.5155 55.2357 86.7232 45.1365 103.065 40.8249L103.559 40.6988C113.11 38.252 123.075 37.8589 132.791 39.5456C142.507 41.2323 151.752 44.9603 159.913 50.482C168.073 56.0038 174.963 63.193 180.124 71.5726C185.284 79.9522 188.599 89.3305 189.847 99.0849C191.094 108.839 190.247 118.747 187.361 128.15C184.475 137.553 179.616 146.236 173.107 153.624C166.598 161.011 158.587 166.934 149.607 170.998C140.627 175.063 130.882 177.176 121.02 177.198V177.198Z" fill="#F4B0C2"/>
</svg>
